<svg xmlns="http://www.w3.org/2000/svg" xmlns:xlink="http://www.w3.org/1999/xlink" preserveAspectRatio="xMidYMid" width="46" height="49" viewBox="0 0 46 49">
  <defs>
    <style>
      .cls-1 {
        fill: #fff;
        filter: url(#filter-chain-1);
        fill-rule: evenodd;
      }
    </style>

    <filter id="filter-chain-1" filterUnits="userSpaceOnUse">
      <feOffset dy="1" in="SourceAlpha"/>
      <feGaussianBlur result="dropBlur"/>
      <feFlood flood-color="#fff" flood-opacity="0.1"/>
      <feComposite operator="in" in2="dropBlur" result="dropShadowComp"/>
      <feComposite in="SourceGraphic" result="shadowed"/>
      <feFlood flood-color="#121212"/>
      <feComposite operator="in" in2="SourceGraphic"/>
      <feBlend in2="shadowed" result="solidFill"/>
    </filter>
  </defs>
  <path d="M37.874,8.924 C30.344,1.101 21.758,-1.396 13.690,1.900 L12.651,2.326 L13.259,3.302 C13.539,3.752 13.820,4.168 14.101,4.568 C12.000,5.671 9.980,7.222 8.079,9.197 C4.059,13.374 1.221,20.490 0.291,28.722 C-0.352,34.419 0.072,39.516 1.359,42.753 C1.600,43.629 1.977,44.354 2.503,44.887 C2.535,44.919 2.575,44.932 2.610,44.959 C2.653,45.012 2.696,45.064 2.741,45.115 C2.752,45.127 2.760,45.141 2.771,45.154 C2.780,45.163 2.781,45.175 2.791,45.184 C2.795,45.189 2.801,45.194 2.806,45.198 C2.809,45.201 2.810,45.204 2.812,45.207 C2.815,45.210 2.819,45.211 2.822,45.213 C2.826,45.217 2.832,45.222 2.837,45.227 C2.849,45.239 2.860,45.255 2.872,45.268 C2.948,45.349 3.047,45.420 3.129,45.498 C3.145,45.511 3.160,45.527 3.176,45.540 C5.181,47.410 8.898,48.462 13.754,48.494 C13.826,48.495 13.897,48.495 13.968,48.495 C21.638,48.495 31.856,45.842 37.600,39.873 C39.555,37.841 41.081,35.669 42.151,33.401 C42.554,33.678 42.973,33.955 43.422,34.230 L44.360,34.808 L44.744,33.747 C47.741,25.457 45.302,16.641 37.874,8.924 ZM36.306,38.529 C30.880,44.167 21.048,46.630 13.765,46.593 C12.528,46.586 11.368,46.496 10.291,46.348 C15.302,45.316 21.523,41.959 24.394,37.089 C24.658,36.642 24.523,36.057 24.092,35.783 C23.659,35.509 23.098,35.650 22.835,36.097 C20.079,40.770 13.434,44.146 8.602,44.708 C6.504,44.949 4.888,44.651 4.135,43.887 C4.122,43.874 4.111,43.857 4.099,43.843 C3.575,42.683 6.620,35.776 10.990,32.407 C11.395,32.094 11.480,31.500 11.179,31.079 C10.878,30.657 10.305,30.569 9.901,30.882 C6.913,33.186 4.124,37.433 2.896,40.676 C2.873,40.118 2.890,39.510 2.962,38.849 C3.504,33.827 6.752,26.921 11.249,24.059 C11.680,23.785 11.815,23.200 11.551,22.752 C11.287,22.305 10.725,22.165 10.293,22.438 C6.188,25.051 3.201,30.334 1.854,35.105 C1.787,33.187 1.865,31.097 2.108,28.944 C2.977,21.244 5.693,14.364 9.372,10.541 C11.234,8.606 13.210,7.114 15.252,6.096 C18.142,9.603 20.882,10.737 22.638,11.078 C22.439,11.367 22.270,11.651 22.095,11.937 C22.002,12.087 21.895,12.239 21.809,12.388 C21.695,12.586 21.604,12.780 21.499,12.976 C21.375,13.210 21.240,13.447 21.129,13.678 C21.078,13.785 21.040,13.889 20.993,13.995 C20.850,14.311 20.708,14.625 20.590,14.934 C20.576,14.970 20.567,15.004 20.554,15.040 C18.560,20.349 20.045,24.582 20.462,25.581 L20.605,25.926 L20.937,26.075 C21.830,26.476 25.406,27.841 30.005,26.372 C30.007,26.372 30.008,26.371 30.010,26.371 C30.342,26.265 30.681,26.137 31.023,26.000 C31.076,25.978 31.128,25.964 31.181,25.942 C31.441,25.834 31.707,25.701 31.972,25.575 C32.112,25.508 32.249,25.453 32.391,25.380 C32.599,25.273 32.812,25.141 33.023,25.021 C33.226,24.905 33.426,24.803 33.631,24.674 C33.779,24.582 33.931,24.467 34.080,24.367 C34.350,24.188 34.618,24.016 34.892,23.813 C35.247,25.799 36.516,28.995 40.641,32.283 C39.655,34.462 38.201,36.560 36.306,38.529 ZM43.391,31.979 C43.119,31.797 42.879,31.615 42.629,31.434 L42.311,31.195 C36.127,26.554 36.576,22.327 36.606,22.096 L37.020,19.539 L37.004,19.553 L37.004,19.553 L35.110,21.225 C29.075,26.552 23.515,25.035 22.004,24.469 C21.902,24.175 21.767,23.732 21.650,23.166 C21.494,22.412 21.369,21.438 21.392,20.302 C21.443,17.748 22.242,14.378 25.126,10.851 L26.733,8.887 L24.362,9.285 L24.287,9.296 C24.276,9.298 24.249,9.302 24.212,9.305 C24.200,9.306 24.181,9.307 24.166,9.308 C24.145,9.310 24.120,9.311 24.094,9.313 C23.283,9.345 19.965,9.155 16.232,4.329 L15.971,3.992 C15.795,3.755 15.620,3.526 15.443,3.267 C22.478,0.913 29.939,3.368 36.579,10.269 C43.137,17.080 45.529,24.746 43.391,31.979 Z" class="cls-1"/>
</svg>
